<?xml version="1.0" encoding="utf-8"?>
<!-- Generator: Adobe Illustrator 24.3.0, SVG Export Plug-In . SVG Version: 6.00 Build 0)  -->
<svg version="1.1" id="Layer_1" xmlns="http://www.w3.org/2000/svg" xmlns:xlink="http://www.w3.org/1999/xlink" x="0px" y="0px"
	 viewBox="0 0 800 800" style="enable-background:new 0 0 800 800;" xml:space="preserve" >
<style type="text/css">
	.st0{fill:#323232;}
</style>
<g>
	<g>
		<path class="st0" d="M257,266.6c-0.7,13.7,0.9,27.5,4.2,40.7c3.5,14.2,8.9,27.9,15.8,40.7c7,13,15.5,25.1,25.6,35.9
			c9.8,10.5,21.2,19.8,33.9,26.8c12.4,6.8,26.1,11.4,40.2,12.8c15.5,1.6,31.1-0.7,45.7-5.8c14.3-4.9,27.6-12.7,38.5-23.3
			c10.1-9.9,17.8-22,23.5-34.9c6-13.6,9.9-28,12.7-42.5c1.4-7.5,2.6-15.1,3.6-22.7c1.1-8.3,2.1-16.7,2.5-25.1
			c0.3-5.5,0.3-11.1,0.3-16.6c0-0.8-1.2-0.8-1.2,0c0,5.7,0,11.4-0.3,17.1c-0.3,4.3-0.7,8.6-1.2,12.8c-0.8,7.7-1.7,15.3-2.9,22.9
			c-2.3,14.6-5.5,29.2-10.5,43.2c-4.8,13.3-11.3,26.1-20.3,37c-9.2,11.3-20.9,20.2-34.1,26.4c-14.2,6.7-30.1,10.6-45.8,10.7
			c-14.2,0.1-28.3-3-41.3-8.8c-13-5.7-24.8-14-35.2-23.6c-10.7-10-19.8-21.5-27.5-33.9c-7.7-12.4-13.8-25.8-18.2-39.7
			c-4.1-13.2-6.7-26.9-7.1-40.7c-0.1-3.2,0-6.3,0.1-9.5C258.3,265.8,257,265.8,257,266.6L257,266.6z"/>
	</g>
</g>
<g>
	<g>
		<path class="st0" d="M260,300c-2.7-3.6-6.2-6.4-10.5-7.8c-4-1.3-8.3-1.2-12.4-0.2c-8,2.1-15.3,8.1-17.7,16.2
			c-2.3,7.6,0.4,17.1,7.1,21.7c6.4,4.5,14.9,6.7,22.6,7c6.6,0.3,15.1-1.3,17.3-8.6c0.3-0.9,0.4-1.8,0.5-2.7c0.1-0.8-1.2-0.8-1.2,0
			c-0.3,3.2-1.9,6-4.7,7.7c-2.9,1.8-6.4,2.3-9.8,2.4c-7.4,0.2-15.4-1.8-21.9-5.4c-2.9-1.6-5-3.5-6.7-6.3c-2.2-3.8-3.3-8.1-2.7-12.5
			c1-7.9,7.2-14.3,14.4-17.2c4.1-1.6,8.6-2.3,12.9-1.4c4.8,1,8.8,3.8,11.7,7.7C259.4,301.3,260.5,300.6,260,300L260,300z"/>
	</g>
</g>
<g>
	<g>
		<path class="st0" d="M242.4,320.4c7.5,0.4,14.6-2.4,22-2.9c0.6,0,0.8-0.8,0.3-1.2c-6.9-4.9-15.1-7.8-21.8-13.1
			c-0.6-0.5-1.5,0.4-0.9,0.9c6.8,5.3,15.1,8.3,22.1,13.3c0.1-0.4,0.2-0.8,0.3-1.2c-7.4,0.5-14.5,3.3-22,2.9
			C241.6,319.1,241.6,320.4,242.4,320.4L242.4,320.4z"/>
	</g>
</g>
<g>
	<g>
		<path class="st0" d="M502.1,294.1c2.1-5.8,7.3-9.4,13.4-9.7c5.6-0.3,11.5,2.1,15,6.6c3.8,5,4,12.1,0.6,17.4
			c-3.3,5.2-9.2,8.3-15,9.4c-6.2,1.2-13.8,0-17.5-5.7c-0.4-0.7-1.5,0-1.1,0.6c3.6,5.3,10.2,7.1,16.3,6.6c6.5-0.6,13.2-3.5,17.4-8.8
			c4.1-5.3,4.9-12.7,1.5-18.5c-3.1-5.4-9.2-8.6-15.3-8.9c-7.3-0.4-14,3.6-16.5,10.6C500.6,294.5,501.8,294.9,502.1,294.1
			L502.1,294.1z"/>
	</g>
</g>
<g>
	<g>
		<path class="st0" d="M520.4,295.3c-6.2,2.6-13.4,2.8-19.2,6.4c-0.5,0.3-0.3,1,0.1,1.1c4.1,1.6,7.8,4,11.6,6.3
			c0.7,0.4,1.3-0.7,0.6-1.1c-3.8-2.4-7.6-4.8-11.9-6.4c0,0.4,0.1,0.8,0.1,1.1c5.7-3.6,12.7-3.8,18.9-6.3
			C521.4,296.2,521.1,295,520.4,295.3L520.4,295.3z"/>
	</g>
</g>
<g>
	<g>
		<path class="st0" d="M372.5,423.3c0,8.6-1,17.2-3.2,25.5c-2.1,7.9-5.2,15.5-8.7,22.8c-1.9,3.9-3.9,7.8-5.9,11.6
			c-0.6,1.2-1.1,2-1,3.4c0.3,2.7,1.7,5.3,3,7.6c4.5,8.1,10.3,15.6,16,22.9c6.3,8.1,12.9,16,19.6,23.7c2.4,2.8,4.9,5.6,7.4,8.3
			c0.8,0.9,1.6,1.8,2.4,2.6c0.3,0.3,0.5,0.5,0.8,0.8c0.1,0.1,0.7,0.7,0.4,0.3c0.4,0.7,0.7,1.6,1,2.4c0.2,0.5,0.8,0.6,1.1,0.1
			c5.7-8.1,12-15.8,18.1-23.6c7.6-9.7,15.2-19.3,22.3-29.4c2.5-3.5,5.2-7.1,6.9-11c0.2-0.3,0.1-0.6-0.2-0.9
			c-8.7-6.4-14-16.6-17.9-26.5c-1.9-4.7-3.5-9.6-5-14.5c-1.6-5.1-2.2-10.3-2.7-15.6c-0.6-5.2-0.8-10.9-2.8-15.8
			c-0.3-0.7-1.5-0.4-1.2,0.3c1.9,4.6,2.2,9.8,2.7,14.7c0.6,5.3,1,10.7,2.6,15.8c3.1,10.2,6.6,20.5,12.3,29.6c3.1,5,6.8,9.5,11.5,13
			c-0.1-0.3-0.1-0.6-0.2-0.9c-1.5,3.3-3.8,6.4-5.9,9.4c-3.2,4.6-6.6,9.2-10.1,13.7c-7.6,10-15.3,19.8-23,29.6
			c-2.8,3.7-5.7,7.3-8.4,11.2c0.4,0,0.8,0.1,1.1,0.1c-0.4-1.1-0.7-2.3-1.5-3.1c-0.6-0.6-1.2-1.2-1.8-1.8c-2.2-2.3-4.3-4.7-6.4-7.1
			c-6.5-7.4-12.8-14.9-19-22.6c-6.1-7.7-12.2-15.5-17.3-23.8c-1.6-2.6-3.3-5.4-4.1-8.4c-0.2-0.8-0.5-1.8-0.3-2.6
			c0.3-1.1,1.2-2.4,1.8-3.5c1-1.9,2-3.8,3-5.7c3.6-7.2,7-14.7,9.4-22.4c2.5-7.8,3.9-15.8,4.4-23.9c0.1-2.2,0.2-4.4,0.2-6.6
			C373.8,422.5,372.5,422.5,372.5,423.3L372.5,423.3z"/>
	</g>
</g>
<g>
	<g>
		<path class="st0" d="M362.4,464.1c-12.1,0-25.2,4-30.7,15.8c-2.5,5.4-3.1,11.5-2.5,17.4c0.4,3.5,1.1,7,2.1,10.3
			c1.5,5.1,3,10.2,4.4,15.3c1.5,5.1,2.9,10.3,4.4,15.4c1.1,3.7,2.3,7.5,3.2,11.2c1.4,5.5,2.5,11.1,4.1,16.6
			c1.6,5.4,3.5,11.3,7.2,15.6c1.4,1.6,3.1,3,5.1,3.5c2.2,0.6,4.5-0.1,6.6-0.9c6-2.3,11.4-6.1,16.5-9.9c6.2-4.6,12-9.5,17.6-14.7
			c1.8-1.6,3.5-3.3,5.3-4.9c0.6-0.5-0.3-1.4-0.9-0.9c-10.7,9.8-21.4,20-34.2,27c-3.9,2.2-9.1,4.9-13.3,1.8
			c-4.1-3.1-6.1-8.9-7.7-13.6c-1.9-5.5-3.1-11.2-4.5-16.9c-1.7-7.3-4-14.4-6-21.5c-1.4-4.8-2.7-9.7-4.1-14.5
			c-1.2-4.3-2.7-8.6-3.7-12.9c-1.4-6-1.8-12.5-0.2-18.5c1.4-5.2,4.3-9.9,8.6-13.1c4.9-3.7,11-5.5,17.1-6.1c1.8-0.2,3.6-0.3,5.4-0.3
			C363.2,465.4,363.2,464.1,362.4,464.1L362.4,464.1z"/>
	</g>
</g>
<g>
	<g>
		<path class="st0" d="M405.3,553.2c2.7,8,7.8,14.8,13.1,21.2c2,2.4,3.8,4.9,5.9,7.3c2,2.3,4.2,4.7,6.9,6.2
			c5.2,2.8,9.2-2.5,11.8-6.4c1.7-2.5,3.1-5.2,4.6-7.8c1.8-3.2,4-6.2,5.9-9.4c4.6-7.8,8.6-16,12.1-24.3c3.1-7.3,6.1-14.7,8.8-22.1
			c2.6-7.1,5-14.7,5-22.3c0-3.1-0.5-6.3-1.7-9.2c-1.1-2.4-2.8-4.5-4.6-6.4c-4.4-4.3-9.9-7.3-15.6-9.7c-5.5-2.3-11.3-4-17.2-4.6
			c-1.2-0.1-2.4-0.2-3.6-0.2c-0.8,0-0.8,1.2,0,1.2c5.3,0,10.6,1.3,15.6,3c5.7,1.9,11.4,4.5,16.2,8.1c4.5,3.3,8.2,7.6,9.2,13.2
			c1.3,7-0.6,14.5-2.7,21.2c-2.2,6.9-5.1,13.6-7.8,20.3c-3.2,8.1-6.7,16-10.7,23.7c-2,3.8-4.1,7.4-6.4,11c-1.6,2.5-3.2,5-4.7,7.6
			c-1.4,2.6-2.9,5.2-4.6,7.6c-1.4,1.9-3.3,4.4-5.8,4.9c-2.5,0.5-5-1.8-6.7-3.4c-2.2-2.1-4.1-4.4-5.9-6.8c-2.1-2.9-4.6-5.6-6.8-8.4
			c-2.5-3.2-4.8-6.6-6.6-10.3c-0.9-1.8-1.8-3.7-2.4-5.7C406.2,552.1,405,552.5,405.3,553.2L405.3,553.2z"/>
	</g>
</g>
<g>
	<g>
		<path class="st0" d="M329.4,486.2c-9.2,6.6-19.3,11.6-28.4,18.3c-8.2,6.1-15.6,13.2-22.4,20.8c-13.6,15.4-25.4,32.8-34.4,51.4
			c-9.2,18.9-15.8,38.8-21.3,59c-1.7,6.3-4.7,12.2-7,18.3c-1.2,3.3-2.4,6.6-3,10c-0.4,2.2-0.8,4.7,0.1,6.8c1,2.4,3.8,4.1,6,5.3
			c3.1,1.8,6.5,3.2,9.8,4.5c8.3,3.2,16.4,6.3,25,8.2c21.7,4.9,43.7,7.4,65.8,9.5c21.9,2,43.8,4.3,65.7,5.3
			c22.6,1.1,45.3,1.1,67.9-0.4c21.7-1.5,43.7-4.2,64.8-9.7c20.2-5.3,39.6-13,58.1-22.7c4.7-2.5,9.3-5.1,13.9-7.7
			c0.3-0.2,0.3-0.4,0.3-0.7c-2.2-13.6-9.4-26-14.4-38.7c-2.8-7.1-5.9-14-8.9-21c-3-6.9-5.6-13.9-8.7-20.7
			c-5.8-12.9-13.1-25.1-21.1-36.8c-4-5.9-8.3-11.6-12.6-17.2c-3.7-4.9-7.5-9.7-11.9-13.9c-5-4.9-10.6-9.3-16.5-13
			c-5.3-3.4-11-6.3-17.1-7.9c-0.8-0.2-1.1,1-0.3,1.2c11.5,3,22,10.5,30.7,18.4c4.5,4.1,8.3,8.6,12.1,13.4c4.3,5.6,8.6,11.2,12.6,17
			c7.9,11.2,15.1,22.9,21.1,35.3c3.2,6.6,5.7,13.4,8.6,20.1c3,7.1,6.1,14.1,9.1,21.1c2.9,7,5.7,13.9,8.8,20.8
			c3.1,7.2,6.2,14.5,7.4,22.3c0.1-0.2,0.2-0.5,0.3-0.7c-18,10.5-36.8,19.5-56.6,25.9c-20.6,6.7-42.1,10.5-63.7,12.7
			c-43.4,4.5-87.1,2.4-130.4-1.7c-21.8-2.1-43.7-3.7-65.4-7.4c-10.2-1.7-20.4-3.7-30.3-6.8c-3.9-1.3-7.7-3-11.6-4.3
			c-3.4-1.2-6.7-2.5-9.9-4.2c-2.5-1.3-6.1-2.9-7.4-5.5c-1.2-2.3-0.4-5.5,0.2-7.8c1.7-6.8,4.6-13.3,7.2-19.8c3-7.4,4.7-15.3,7.1-23
			c3-9.8,6.5-19.5,10.4-29c8-19.2,18.4-36.9,31-53.4c6.3-8.2,13-16,20.6-22.9c7.9-7.3,16.7-13.2,25.9-18.8c4.5-2.7,9.1-5.5,13.4-8.6
			C330.7,486.8,330.1,485.7,329.4,486.2L329.4,486.2z"/>
	</g>
</g>
<g>
	<path class="st0" d="M258,297.4c-2.4-2.4-5.9-3.4-9.3-4.9c-6.3-3.4-6.3-2.9-7.3-9.8c-1-7.8-0.5-16.1-1-23.9
		c-2.4-26.8-6.3-53.7-3.9-80.5c1-12.2,3.4-25.9,18.1-27.3c10.2-1,19,5.4,28.8,6.8c2.4-14.2,10.7-29.3,18.5-40.5
		c8.8-12.2,22.9-14.2,37.1-10.7c19.5,4.9,26.8,20.5,42.5,30.7c5.4,3.4,2,2.9,6.3,0.5c3.4-2,7.3-8.3,10.2-11.2
		c6.8-7.3,12.2-15.6,21.5-21c15.1-9.3,31.7-13.7,44.9,0.5c12.2,13.2,7.3,27.8,12.7,42.9c17.1-4.9,30.7-0.5,39,17.1
		c6.3,13.2,2.9,30.7,0.5,44.4c-3.9,24.4-4,52.2-8.9,75.7c-0.5,2.9-6.2,4.9-6.2,7.8c-11.2-22-13.2-52.7-29.3-73.2
		c-8.3-11.2-20-2.9-33.2-4.9c-8.3-1.5-16.1-5.4-22.9-10.2c-3.4-2.9-12.2-13.7-16.6-13.7s-11.2,10.2-15.1,12.7
		c-6.3,3.4-14.2,5.4-21.5,5.4c-14.6-0.5-27.8-8.8-41-14.6c-5.4,12.2-7.3,20.5-20.5,24.9c-11.2,3.9-27.3,2.4-33.2,14.2
		c-8.8,16.6-8.8,42.5-8.8,61"/>
</g>
<g>
	<g>
		<path class="st0" d="M383.8,243.5c-2,10.7-3.3,21.6-3.8,32.4c-0.5,10.9-0.3,21.8,1.5,32.6c0.7,4.5,1.4,9.5,3.8,13.5
			c1.1,1.9,2.8,3.6,4.7,4.7c1.7,1,3.8,1.2,5.7,1.3c2.3,0.1,4.7,0,7,0.1c1.7,0.1,3.5,0.3,5,1.4c2.1,1.6,0.8,4-0.5,5.7
			c-2.3,2.8-5.5,5-8.6,6.9c-2.6,1.6-5.5,3.2-8.5,4c-0.8,0.2-0.5,1.4,0.3,1.2c2.6-0.6,5.1-2,7.5-3.3c2.9-1.7,5.8-3.6,8.3-5.9
			c1.7-1.6,3.8-3.8,3.9-6.3c0.1-2.6-2.5-4.1-4.8-4.6c-4.4-0.9-9.1,0.4-13.4-1c-4.9-1.6-7-7-7.9-11.5c-2.3-10.8-3-22-2.8-33
			c0.2-12.7,1.6-25.3,3.9-37.7C385.1,243.1,383.9,242.7,383.8,243.5L383.8,243.5z"/>
	</g>
</g>
<g>
	<path class="st0" d="M367.8,252c-5.4,28.3-40.5,8.8-60,12.7c-6.3,1-28.3,14.1-26.8,1.5c2-12.7,29.8-16.6,40-17.6
		C328.8,248.1,347.8,248.5,367.8,252"/>
</g>
<g>
	<path class="st0" d="M394.9,253.9c5.4,28.3,40.5,8.8,60,12.7c6.3,1,28.3,14.2,26.8,1.5c-2-12.7-29.8-16.6-40-17.6
		C434,250,414.9,250.5,394.9,253.9"/>
</g>
<g>
	<g>
		<path class="st0" d="M319.6,325.2c0-5.5,0.1-10.9,0.5-16.4c0.5-6.4,1.4-13.4,4.4-19.3c1.1-2.2,2.7-4.3,5-5.3
			c2.3-1,5.1-0.7,7.1,0.7c2.5,1.6,4,4.4,5.2,7c1.5,3.4,2.5,7,3.3,10.5c0.9,4,1.6,8.1,2.3,12.2c0.5,3.1,0.9,6.2,1.7,9.3
			c0.2,0.8,1.4,0.4,1.2-0.3c-0.8-2.8-1.2-5.7-1.6-8.5c-0.6-3.8-1.2-7.6-2.1-11.4c-0.8-3.8-1.8-7.6-3.2-11.2
			c-1.2-2.9-2.7-5.8-5.1-7.9c-2-1.7-4.6-2.4-7.2-2.1c-2.5,0.4-4.6,1.9-6.1,3.9c-3.9,5.1-5,12.3-5.8,18.6c-0.8,6.7-0.9,13.5-0.9,20.2
			C318.4,326,319.6,326,319.6,325.2L319.6,325.2z"/>
	</g>
</g>
<g>
	<g>
		<path class="st0" d="M424.5,325.2c0-5.5,0.1-10.9,0.5-16.4c0.5-6.4,1.4-13.4,4.4-19.3c1.1-2.2,2.7-4.3,5-5.3
			c2.3-1,5.1-0.7,7.1,0.7c2.5,1.6,4,4.4,5.2,7c1.5,3.4,2.5,7,3.3,10.5c0.9,4,1.6,8.1,2.3,12.2c0.5,3.1,0.9,6.2,1.7,9.3
			c0.2,0.8,1.4,0.4,1.2-0.3c-0.8-2.8-1.2-5.7-1.6-8.5c-0.6-3.8-1.2-7.6-2.1-11.4c-0.8-3.8-1.8-7.6-3.2-11.2
			c-1.2-2.9-2.7-5.8-5.1-7.9c-2-1.7-4.6-2.4-7.2-2.1c-2.5,0.4-4.6,1.9-6.1,3.9c-3.9,5.1-5,12.3-5.8,18.6c-0.8,6.7-0.9,13.5-0.9,20.2
			C423.3,326,424.5,326,424.5,325.2L424.5,325.2z"/>
	</g>
</g>
<g>
	<g>
		<path class="st0" d="M370.9,366.7c11.4,5.1,25.1,7.4,37.1,3c-0.3-0.2-0.5-0.4-0.8-0.6c-0.4,4-1.6,8-3.4,11.6
			c-1.8,3.6-4.2,7.2-7.7,9.4c-3.6,2.2-7.8,2.1-11.5,0.2c-4-2-6.9-5.8-8.9-9.8c-2.2-4.4-3.6-9.4-3.9-14.4c0-0.8-1.3-0.8-1.2,0
			c0.3,4.7,1.5,9.4,3.5,13.7c2,4.3,4.9,8.6,9,11.1c3.7,2.2,8.1,2.9,12.1,1.1c3.8-1.7,6.7-5.2,8.7-8.7c2.5-4.3,4-9.2,4.5-14.2
			c0-0.4-0.4-0.7-0.8-0.6c-11.7,4.3-25,2.1-36.1-2.9C370.8,365.3,370.2,366.4,370.9,366.7L370.9,366.7z"/>
	</g>
</g>
<g>
	<g>
		<path class="st0" d="M315.1,360c0.3,0,0.7,0,1,0c0.2,0,0.3-0.1,0.4-0.2c0.1-0.1,0.2-0.3,0.2-0.4c0-0.2-0.1-0.3-0.2-0.4
			c-0.1-0.1-0.3-0.2-0.4-0.2c-0.3,0-0.7,0-1,0c-0.2,0-0.3,0.1-0.4,0.2c-0.1,0.1-0.2,0.3-0.2,0.4c0,0.2,0.1,0.3,0.2,0.4
			C314.8,359.9,314.9,360,315.1,360L315.1,360z"/>
	</g>
</g>
<g>
	<g>
		<path class="st0" d="M331.7,345.3c0.1,0,0.3,0,0.4,0c0,0,0,0,0.1,0c0.1,0,0.2,0,0.2-0.1c0.1,0,0.1-0.1,0.2-0.1
			c0.1-0.1,0.1-0.1,0.1-0.2c0-0.1,0.1-0.2,0.1-0.2c0-0.1,0-0.1,0-0.2c0-0.1-0.1-0.2-0.2-0.3c0,0-0.1-0.1-0.1-0.1
			c-0.1-0.1-0.2-0.1-0.3-0.1c-0.1,0-0.3,0-0.4,0c0,0,0,0-0.1,0c-0.1,0-0.2,0-0.2,0.1c-0.1,0-0.1,0.1-0.2,0.1
			c-0.1,0.1-0.1,0.1-0.1,0.2c0,0.1-0.1,0.2-0.1,0.2c0,0.1,0,0.1,0,0.2c0,0.1,0.1,0.2,0.2,0.3c0,0,0.1,0.1,0.1,0.1
			C331.5,345.3,331.6,345.3,331.7,345.3L331.7,345.3z"/>
	</g>
</g>
<g>
	<g>
		<path class="st0" d="M333.6,366.8c0.8,0,0.8-1.2,0-1.2C332.8,365.5,332.8,366.8,333.6,366.8L333.6,366.8z"/>
	</g>
</g>
<g>
	<g>
		<path class="st0" d="M435.6,363.9c0.8,0,0.8-1.2,0-1.2C434.8,362.6,434.8,363.9,435.6,363.9L435.6,363.9z"/>
	</g>
</g>
<g>
	<g>
		<path class="st0" d="M439,341.9c0.8,0,0.8-1.2,0-1.2C438.2,340.7,438.2,341.9,439,341.9L439,341.9z"/>
	</g>
</g>
<g>
	<g>
		<path class="st0" d="M452.7,355.6c0.8,0,0.8-1.2,0-1.2C451.9,354.3,451.9,355.6,452.7,355.6L452.7,355.6z"/>
	</g>
</g>
<path class="st0" d="M587.9,655.8c0-8.4-4.7-19.5-6.9-24.5c-7-16.4-16.8-31.5-24.2-47.8c-7.5-16.6-17.4-33.1-28.2-47.8
	c-0.1-0.1-0.2-0.2-0.3-0.3c-8.6-13.5-19.4-24.6-33.9-34.8c-1.1-0.8-2.3-1-3.4-0.8c-0.5-1.2-1.1-2.4-1.9-3.6c-2.5-3.4-9-3.9-10,1.3
	c-1.7,9.2-4.3,18-8.2,26.5c-0.9,1.9-0.6,3.8,0.2,5.2c-3.9,6-7.9,11.4-9.5,14.8c-0.7,1.4-0.8,2.7-0.5,3.8c-4,6.1-7.6,12.4-9.8,19.4
	c-0.2,0.7-0.3,1.3-0.2,1.9c-2.9,4.4-5.8,8.8-9,12.9c-0.6,0.8-0.8,1.5-0.9,2.3c-1,0.2-1.9,0.1-2.8-0.4c-2.9-1.4-5.6-0.3-7.1,1.7
	c-3.1-2.8-6.3-5.3-9.6-7.6c-0.7-0.8-1.5-1.5-2.3-2.3c-3.1-6-6.1-12.2-9.3-18.2c-2.1-3.9-7.2-3.1-9.5,0
	c-9.7,13.2-21.4,26.7-39.2,26.6c-1.5,0-2.7,0.4-3.5,1.1c-1.9-1.8-3.8-3.6-5.7-5.5c0.6-1.1,0.8-2.5,0.3-3.8
	c-3.7-9.9-6.7-19.9-8.8-30.3c-1-4.7-0.5-10.6-4.3-14.1c-0.5-0.5-1-0.8-1.5-1c-0.4-2-0.9-4-1.5-6c-0.6-5-1.6-10-3.4-15
	c-0.4-1.2-1.2-2.2-2-2.8c0.2-3.3,0.5-6.6,1-9.9c0.8-4.8-5.3-10-9.2-5.3c-0.5,0.6-0.9,1.1-1.4,1.6c-0.5,0.1-0.9,0.2-1.4,0.4
	c-24.4,11.5-42.1,32.7-57.1,54.6c-3.2,4.7-6,9.5-8.6,14.5c-4.8,6-8.7,12.5-11.6,19.8c0,0.1-0.7,2.3-1.6,5.3
	c-1.9,3.2-3.6,6.4-5.1,9.9c-0.2,0.4-0.3,0.8-0.4,1.1c-5.2,8.8-7.7,18.6-10.4,28.5c-2.7,9.9-12.1,22.8-11.6,34.1
	c-1.6,1.5-2.2,3.8-0.5,6.2c11.4,17,35.7,22.6,54.7,25.8c36,6,72.5,8.4,108.9,9.6c39.7,1.3,79.3,1.8,118.8-3.4
	c15.8-2.1,30.7-8.8,45.7-13.8c16.6-5.5,31.4-11.1,45.9-21.1C590.6,662.3,590.1,658,587.9,655.8z"/>
</svg>
