<svg xmlns="http://www.w3.org/2000/svg" viewBox="0 0 416.62 554.84"><defs><style>.cls-1{fill:#323232;}</style></defs><g id="Layer_2" data-name="Layer 2"><g id="Layer_1-2" data-name="Layer 1"><path class="cls-1" d="M78.44,120.77a138.83,138.83,0,0,0,4.26,40.89,175.82,175.82,0,0,0,15.78,40.57,172.15,172.15,0,0,0,25.69,36.07A137.31,137.31,0,0,0,158,265.07a106.27,106.27,0,0,0,40.2,12.84c15.49,1.61,31.06-.7,45.75-5.73a102.21,102.21,0,0,0,38.57-23.33c10.16-9.94,17.93-22,23.67-35,6-13.54,9.92-27.91,12.73-42.42,1.46-7.57,2.62-15.2,3.6-22.85,1.05-8.33,2.06-16.73,2.54-25.11.32-5.53.32-11.07.32-16.61a.63.63,0,0,0-1.25,0c0,5.7,0,11.41-.35,17.1-.26,4.29-.72,8.58-1.16,12.86-.8,7.66-1.74,15.32-2.93,22.93-2.3,14.71-5.5,29.35-10.54,43.38-4.79,13.29-11.34,26.07-20.35,37a97.61,97.61,0,0,1-34.34,26.47,110.61,110.61,0,0,1-45.85,10.56,101,101,0,0,1-41.27-8.86,127.61,127.61,0,0,1-35.12-23.69,164.63,164.63,0,0,1-27.46-33.93,177.69,177.69,0,0,1-18.12-39.6,148.5,148.5,0,0,1-7.12-40.83c-.08-3.17,0-6.33.14-9.5,0-.8-1.21-.8-1.25,0Z"/><path class="cls-1" d="M194.18,277.63A101.14,101.14,0,0,1,191,303.2a129.16,129.16,0,0,1-8.72,22.88c-1.88,3.92-3.87,7.78-5.91,11.62a5.44,5.44,0,0,0-1,3.38c.28,2.69,1.73,5.31,3,7.64,4.49,8.13,10.28,15.59,16,22.89,6.33,8.09,12.92,16,19.66,23.73q3.64,4.19,7.37,8.29c.8.88,1.61,1.76,2.43,2.62l.79.81c.14.13.69.75.38.26a15.36,15.36,0,0,1,1,2.41.63.63,0,0,0,1.14.15c5.67-8.13,12-15.81,18.13-23.62,7.57-9.69,15.2-19.37,22.32-29.4,2.48-3.5,5.16-7.08,6.95-11a.65.65,0,0,0-.22-.86c-8.74-6.45-14-16.63-17.95-26.52-1.89-4.75-3.5-9.61-5-14.49a82.11,82.11,0,0,1-2.74-15.64c-.56-5.21-.79-10.89-2.83-15.78-.31-.73-1.52-.41-1.21.33,1.91,4.57,2.18,9.82,2.71,14.69.57,5.28,1,10.68,2.57,15.78,3.08,10.21,6.65,20.56,12.28,29.68a45.76,45.76,0,0,0,11.56,13l-.23-.85a61.41,61.41,0,0,1-5.87,9.44c-3.24,4.65-6.65,9.2-10.08,13.72-7.57,10-15.36,19.79-23,29.69-2.86,3.67-5.75,7.34-8.42,11.16l1.15.15a8.38,8.38,0,0,0-1.55-3.1c-.61-.59-1.19-1.22-1.77-1.84-2.19-2.35-4.32-4.74-6.43-7.14q-9.76-11.07-19-22.58c-6.13-7.67-12.24-15.48-17.35-23.88a36,36,0,0,1-4.15-8.42,5.42,5.42,0,0,1-.27-2.56,18.7,18.7,0,0,1,1.79-3.5c1-1.91,2-3.82,2.95-5.74a151,151,0,0,0,9.42-22.44,98.77,98.77,0,0,0,4.42-24c.14-2.19.19-4.39.2-6.59a.63.63,0,0,0-1.25,0Z"/><path class="cls-1" d="M81.94,154a15.54,15.54,0,0,0-18-.5,27.88,27.88,0,0,0-11.59,16.27,20.81,20.81,0,0,0,4.28,19.72,18.6,18.6,0,0,0,16.57,7.27c7.57-.89,13.54-6.39,16.74-13.07.34-.73-.73-1.36-1.08-.64-2.7,5.66-7.37,10.48-13.58,12.06a16.83,16.83,0,0,1-16-4.5,20.71,20.71,0,0,1-6.26-18.25,27.34,27.34,0,0,1,9.4-16.26,17,17,0,0,1,8.93-4,14.18,14.18,0,0,1,9.87,3c.65.48,1.28-.61.64-1.08Z"/><path class="cls-1" d="M65.5,169.29c6,0,12.07,0,18.07-.49l-.44-1.07c-4.45,5-8,10.91-13.19,15.15-.63.5.26,1.38.88.88,5.24-4.24,8.74-10.17,13.2-15.15.32-.36.13-1.11-.45-1.06-6,.53-12,.49-18.07.49a.63.63,0,0,0,0,1.25Z"/><path class="cls-1" d="M322.58,155.78c2.45-5.11,6.68-9.42,12.29-10.87a14.1,14.1,0,0,1,13.33,3.3c4.47,4.32,5.72,11.46,4.78,17.4a21.16,21.16,0,0,1-13.87,16.28,19,19,0,0,1-11.05.32c-2.85-.7-7.11-2.13-7.86-5.41-.18-.78-1.39-.45-1.21.33.68,3,3.76,4.6,6.37,5.57A22.37,22.37,0,0,0,335.73,184c7.82-1,14.75-7,17.46-14.3,2.35-6.36,1.7-14.86-2.39-20.42a15.11,15.11,0,0,0-13.86-6c-7,.77-12.5,5.74-15.44,11.88-.35.72.73,1.36,1.08.63Z"/><path class="cls-1" d="M339.31,155.42c-5.45,3.91-12.13,5.36-18.08,8.3a.64.64,0,0,0,0,1.08,88.26,88.26,0,0,0,14.67,8.8c.71.36,1.35-.72.63-1.08a87.76,87.76,0,0,1-14.66-8.8v1.08c5.94-2.94,12.62-4.39,18.07-8.3.65-.47,0-1.55-.63-1.08Z"/><path class="cls-1" d="M81.45,155c14.32-6.8,22.72-21.15,30.86-34,5.12-8.1,10.34-16.14,15.48-24.23,4.36-6.85,8.76-13.62,12.81-20.65,2.07-3.6,4.16-7.2,6.57-10.59,2.07-2.91,4.44-5.93,7.58-7.74l-.76-.1a89,89,0,0,0,27.55,20.64c10.3,5,21.34,8.36,32.48,10.94,11.64,2.69,23.5,5,35.35,6.52,14,1.86,28.08,3,41.84,6.1a50,50,0,0,1,18,8.11c5.11,3.62,9.81,7.77,15,11.31.66.46,1.29-.62.63-1.08-9.16-6.27-17.06-14.37-27.79-18C290.65,100,283.78,99,277.15,98c-6.92-1-13.87-1.79-20.81-2.62-12.35-1.49-24.62-3.63-36.79-6.21-11.26-2.38-22.47-5.35-33.05-10a90.36,90.36,0,0,1-31.63-22.44.62.62,0,0,0-.75-.1,23.61,23.61,0,0,0-6.54,6.18,85.77,85.77,0,0,0-5.89,8.87c-1.89,3.18-3.68,6.41-5.56,9.6-2,3.36-4.18,6.59-6.29,9.87-5.42,8.46-10.76,17-16.22,25.41-4.32,6.67-8.35,13.53-13.11,19.9-5.29,7.09-11.6,13.57-19.69,17.41-.73.34-.09,1.42.63,1.08Z"/><path class="cls-1" d="M206.11,116.94c-2.46,17.28-4.56,34.93-2.12,52.34a85.24,85.24,0,0,0,2.69,12.63,23.29,23.29,0,0,0,3.76,7.72c2.87,3.66,7.12,5.17,11.66,5.28,6,.15,11.92-1.34,17.85-1.93l-.63-.62c.2,4.32-2.31,8.31-5.06,11.44a31,31,0,0,1-9.78,7.57c-.73.34-.09,1.42.63,1.08a32,32,0,0,0,10.51-8.32c2.75-3.27,5.15-7.35,4.95-11.77a.64.64,0,0,0-.62-.63c-5.13.51-10.2,1.61-15.34,1.89-4.36.23-8.88-.34-12.11-3.54a18.58,18.58,0,0,1-4.16-7.11,70.12,70.12,0,0,1-2.76-11.53A121.64,121.64,0,0,1,204.32,146c.43-9.63,1.64-19.19,3-28.73.11-.78-1.09-1.12-1.21-.33Z"/><path class="cls-1" d="M190.11,120.58c3.9,16.61-7.83,13.68-21.51,15.15a133.87,133.87,0,0,0-24.43,3.91c-9.29,2.93-13.68,6.84-20.52,11.72-5.87-21,35.67-30.8,66.46-30.78"/><path class="cls-1" d="M228.6,119.08c-2.47,16.89,9,13,22.72,13.25a133.5,133.5,0,0,1,24.68,1.8c9.5,2.12,14.22,5.64,21.45,9.92,4-21.44-38.18-27.63-68.85-25"/><path class="cls-1" d="M153.59,188.7a147.39,147.39,0,0,1-.2-18.2c.46-6,1.58-13.15,6.23-17.43a9.72,9.72,0,0,1,7.09-2.71,7.84,7.84,0,0,1,5.2,2.86c3.43,3.87,4.87,9.46,6.05,14.37,1.22,5.09,1.77,10.38,3.23,15.41a.63.63,0,0,0,1.21-.33c-1.37-4.71-1.91-9.66-3-14.44-1.21-5.27-2.7-11.07-6.16-15.37a9.21,9.21,0,0,0-12.29-2.3c-5.55,3.22-7.54,10.1-8.38,16-1,7.34-.57,14.73-.22,22.1,0,.8,1.29.8,1.25,0Z"/><path class="cls-1" d="M248.37,186.7a147.22,147.22,0,0,1-.2-18.19c.46-6,1.58-13.15,6.24-17.43a9.7,9.7,0,0,1,7.08-2.72,7.85,7.85,0,0,1,5.2,2.86c3.43,3.88,4.87,9.47,6.05,14.38C274,170.69,274.52,176,276,181a.62.62,0,0,0,1.2-.33c-1.36-4.71-1.91-9.66-3-14.43C273,161,271.47,155.17,268,150.86a9.21,9.21,0,0,0-12.29-2.29c-5.55,3.22-7.53,10.09-8.38,16-1,7.33-.57,14.73-.22,22.09,0,.8,1.29.81,1.25,0Z"/><path class="cls-1" d="M198.24,227.42c9.58,3.27,19.58,2,29.49,2l-.6-.79c-1.94,6.54-4.68,13.67-9.54,18.61-2.28,2.31-5.32,4-8.66,3.38-4.23-.85-6.62-4.29-7.91-8.16a37,37,0,0,1-1.5-14.15c.06-.81-1.19-.8-1.25,0a39,39,0,0,0,1.26,13.56c1.18,4.06,3.34,7.91,7.47,9.48,7.85,3,13.69-4.91,16.82-11a65.67,65.67,0,0,0,4.51-11.42.63.63,0,0,0-.6-.79c-9.79,0-19.69,1.31-29.15-1.93-.77-.26-1.09.95-.34,1.21Z"/><path class="cls-1" d="M147.6,33a55.31,55.31,0,0,1-11.68,18.52,41.32,41.32,0,0,1-19.6,11.3c-4,1-8.17,1.6-12.27,2.36-.79.14-.45,1.35.34,1.2,7.48-1.37,15.17-2.32,22-6A47.17,47.17,0,0,0,143,44.73a64.84,64.84,0,0,0,5.8-11.38c.3-.75-.91-1.07-1.2-.33Z"/><path class="cls-1" d="M128.17,58.3A82,82,0,0,1,114.81,82a35.64,35.64,0,0,1-10.23,8.79A40.29,40.29,0,0,1,91.52,95c-5.21.85-10.48,1.21-15.68,2.11-.8.14-.46,1.34.33,1.21,9.32-1.62,19.16-1.48,27.81-5.79,8.5-4.24,14.26-12.16,18.9-20.19a86.4,86.4,0,0,0,6.5-13.67c.27-.76-.94-1.09-1.21-.34Z"/><path class="cls-1" d="M100,93c-4.27,7.56-8.21,15.58-14.58,21.64A30.31,30.31,0,0,1,73,122a26.59,26.59,0,0,1-14.61-.36C53,120.09,48,117.46,43,115.1l.23.86c5.38-8.21,9.71-17.28,16.45-24.51C67.3,83.23,78.31,79.06,89.5,81.13c6.55,1.22,12.53,4.25,18.44,7.2.71.36,1.35-.72.63-1.08-5.4-2.7-10.85-5.47-16.75-6.9A34.09,34.09,0,0,0,73.38,81c-9.8,3.14-16.54,10.87-22,19.26-3.21,5-6.07,10.13-9.31,15.08a.63.63,0,0,0,.22.85c9,4.2,18.36,9.38,28.62,7.56,9.56-1.7,17-8.75,22.19-16.54,2.93-4.36,5.37-9,8-13.6A.63.63,0,0,0,100,93Z"/><path class="cls-1" d="M75.14,80.26A44.36,44.36,0,0,1,92.62,54.45c8.12-5.61,17.93-7.44,27.67-6.76,4.95.34,10.33,1.32,14.4,4.36.64.48,1.27-.61.63-1.08-3.7-2.76-8.47-3.84-13-4.35a53.6,53.6,0,0,0-15.07.48A41,41,0,0,0,81.7,63.38a46.92,46.92,0,0,0-7.77,16.55.63.63,0,0,0,1.21.33Z"/><path class="cls-1" d="M101.18,48.94c.65-7.45,7.22-11.73,13.7-14,7.46-2.61,15.54-3.39,23.39-3.46a86.26,86.26,0,0,1,10.66.49c.8.09.79-1.17,0-1.25a92.24,92.24,0,0,0-22.09.27c-7.54,1-16,2.8-21.81,8a14.88,14.88,0,0,0-5.1,10c-.07.8,1.18.8,1.25,0Z"/><path class="cls-1" d="M187.54,28.22c2.69,7.15,9.38,11,16.56,12.47,8,1.67,16.38,1.11,24.34-.33a70.66,70.66,0,0,0,11.18-2.91c.75-.27.43-1.48-.33-1.21a74.8,74.8,0,0,1-20.78,4.07c-7.37.43-15.52,0-22.1-3.7a16.84,16.84,0,0,1-7.66-8.72c-.28-.75-1.49-.43-1.21.33Z"/><path class="cls-1" d="M212.5,29c8.25-1.77,16.48-4.86,25-4.36,7.86.46,15.62,3.8,20.68,9.93a29.76,29.76,0,0,1,5.55,10.85.63.63,0,0,0,1.21-.33A29.29,29.29,0,0,0,252.3,27.83c-7.48-4.51-16.44-5.22-24.86-3.62-5.14,1-10.16,2.51-15.27,3.61-.79.16-.46,1.37.33,1.2Z"/><path class="cls-1" d="M222.79,41.56C231.67,56.39,253,63,269,57.18A28.55,28.55,0,0,0,280.94,49c.52-.61-.36-1.5-.88-.89-11.54,13.4-32.92,12-46.58,2.75a32.13,32.13,0,0,1-9.61-10,.63.63,0,0,0-1.08.63Z"/><path class="cls-1" d="M260.18,35.25c6.82,1.06,14.52,1.32,20.37,5.44,5.68,4,9.21,10.19,11.82,16.46,1.41,3.4,2.64,6.87,4,10.28.3.74,1.51.42,1.2-.33C295,60.81,293,54.2,289.36,48.43a32.14,32.14,0,0,0-6.75-7.72,24.28,24.28,0,0,0-9.45-4.56c-4.15-1.06-8.43-1.45-12.65-2.1-.79-.13-1.13,1.08-.33,1.2Z"/><path class="cls-1" d="M265.3,59.15c8.14,12.77,23,19.51,38,18.19a44.19,44.19,0,0,0,12.2-2.87c.74-.29.42-1.5-.33-1.21-13.31,5.21-29.1,3.6-40.42-5.41a38.1,38.1,0,0,1-8.35-9.33c-.43-.67-1.51-.05-1.08.63Z"/><path class="cls-1" d="M292.6,53.23a34.58,34.58,0,0,1,17.62,4.22A49.12,49.12,0,0,1,323.15,68.6c2.35,2.73,4.53,5.6,6.65,8.51.47.64,1.56,0,1.08-.63-7.1-9.72-15.27-19.72-27.32-23.15a37.61,37.61,0,0,0-11-1.35.63.63,0,0,0,0,1.25Z"/><path class="cls-1" d="M300.42,77c2.76,14.29,14.65,26,28.33,30.3A37,37,0,0,0,341,108.94c.8,0,.81-1.28,0-1.25-14.18.49-28-8-35.15-20a34.65,34.65,0,0,1-4.19-11c-.15-.79-1.36-.46-1.21.33Z"/><path class="cls-1" d="M317.52,62c4.39,0,9,.6,12.83,2.83a16.21,16.21,0,0,1,6.59,7.42c3.06,6.71,2.77,14.66,2.65,21.87-.07,4.23-.22,8.47,0,12.7.05.8,1.3.8,1.25,0-.46-8,.43-16-.24-24-.59-7-2.57-14.51-8.84-18.61-4.19-2.74-9.35-3.47-14.26-3.49a.63.63,0,0,0,0,1.25Z"/><path class="cls-1" d="M319.46,81.19c-.67,7.88,7.07,12.28,12.77,15.93.67.44,1.3-.64.63-1.08-5.32-3.4-12.78-7.47-12.15-14.85.06-.8-1.19-.79-1.25,0Z"/><path class="cls-1" d="M176.1,339.64c-12.74,8.14-27.4,12.59-41.11,18.76-2.56,1.15-5,2.49-7.63,3.56-2,.8-3.94,1.52-5.92,2.27a91.89,91.89,0,0,0-13.67,6c-2.61,1.51-6.42,3.9-6.24,7.39s3.08,6.49,5.48,8.73c7.18,6.7,16.1,11.46,24.51,16.42,1.52.89,3,1.78,4.51,2.75,2.64,1.73,5.06,3.82,7.6,5.7C150,416,156.57,420.49,163.16,425c13.4,9.11,27,18,39.64,28.16,3.12,2.49,6.22,5,9.36,7.46a37,37,0,0,0,6.83,4.61c4.9,2.3,9.54.49,13.78-2.37,5.87-4,10.87-9.32,15.7-14.45,5-5.34,9.87-10.86,14.88-16.21,5.19-5.54,10.55-10.89,15.66-16.51,5.27-5.79,10.51-11.63,16.16-17.08a164.28,164.28,0,0,1,17-13.91c5.56-4.11,11.14-8.27,16-13.21a53.93,53.93,0,0,0,6.15-7.5.63.63,0,0,0-.22-.86c-12.88-8-27.49-12.18-42.19-15.42-5.19-1.14-10.41-2.19-15.62-3.21-.79-.15-1.12,1.05-.33,1.21,15.83,3.1,32.09,6.11,46.88,12.82a92.58,92.58,0,0,1,10.63,5.68l-.23-.85c-7.6,11.29-19.69,18.4-30.2,26.65-12,9.46-21.65,21.6-32.15,32.64-4.87,5.11-9.81,10.14-14.56,15.37s-9.62,10.65-14.74,15.67a76.28,76.28,0,0,1-7.79,6.92c-2.45,1.81-5.16,3.65-8.19,4.31-5.33,1.16-10-3.13-13.8-6.18-6-4.8-12-9.66-18.26-14.23s-12.79-9.1-19.29-13.51-12.94-8.72-19.34-13.18c-3.2-2.23-6.39-4.5-9.53-6.81-2.77-2-5.41-4.29-8.25-6.22-3.12-2.11-6.45-3.91-9.68-5.82-4.35-2.57-8.68-5.19-12.8-8.09-3.61-2.54-7.4-5.34-10-8.94a8.75,8.75,0,0,1-1.84-4.12,4.67,4.67,0,0,1,1.82-3.76c3.28-3.11,7.93-4.92,12-6.6s8.1-3,12.06-4.69c2.8-1.22,5.51-2.65,8.31-3.88,3.47-1.53,7-3,10.5-4.39,6.76-2.73,13.57-5.41,20.12-8.65a94.93,94.93,0,0,0,9.08-5.09c.68-.43.05-1.52-.63-1.08Z"/><path class="cls-1" d="M103.56,382.86c-3.2,4.43-4.75,10.33-1.28,15.08,3,4.13,8.41,5.93,13.38,5.62a18.54,18.54,0,0,0,9.28-3.23c.66-.45,0-1.53-.63-1.08a17,17,0,0,1-14.77,2.31c-4.21-1.37-7.86-4.82-8-9.45a14.13,14.13,0,0,1,3.13-8.62c.47-.65-.61-1.27-1.08-.63Z"/><path class="cls-1" d="M125.06,400.45c-1.73,3.19-3,6.8-2.5,10.47a12.27,12.27,0,0,0,3.81,7.34c4.69,4.42,11.86,5.77,18.09,5.16a24.57,24.57,0,0,0,10.78-3.54c.67-.43,0-1.51-.64-1.08a25,25,0,0,1-18.19,3c-5.31-1.09-11-4.15-12.4-9.82-.91-3.74.35-7.58,2.13-10.86.38-.71-.7-1.34-1.08-.64Z"/><path class="cls-1" d="M154.38,421c-1.56,3.49-2.59,7.31-1.94,11.15a13.66,13.66,0,0,0,4.4,7.75c5.18,4.69,12.75,6.29,19.53,6.58a42.43,42.43,0,0,0,11.94-1.11.62.62,0,0,0-.33-1.2,42.05,42.05,0,0,1-20-.14c-5.72-1.45-12.09-4.6-13.93-10.68-1.19-3.93-.18-8.08,1.45-11.72.33-.73-.75-1.37-1.08-.63Z"/><path class="cls-1" d="M188.52,444.58c-1.65,7.46-.72,15.7,4,21.9,4,5.2,10.28,8.11,16.8,6.84,4.46-.86,8.34-3.48,11.52-6.63a.62.62,0,0,0-.88-.88c-4.91,4.84-11.72,8.14-18.61,5.77-6-2.07-10.07-7.8-11.59-13.82a27.89,27.89,0,0,1,0-12.85c.17-.78-1-1.11-1.21-.33Z"/><path class="cls-1" d="M233.77,463.86c6.12,3.46,13.83,5.55,20.38,1.94,5.68-3.14,8.49-9.52,9.17-15.72a35,35,0,0,0-1.27-13.31.63.63,0,0,0-1.21.33c1.87,6.64,2.21,14.21-.88,20.56a14.93,14.93,0,0,1-13.58,8.8,25.1,25.1,0,0,1-12-3.68.63.63,0,0,0-.63,1.08Z"/><path class="cls-1" d="M261,437.37c3.34,3.46,7.48,6.57,12.35,7.28a14.11,14.11,0,0,0,10.47-2.8c7-5.2,10.09-14.72,10.22-23.12a30.37,30.37,0,0,0-3.71-15.34.63.63,0,0,0-1.08.63c4.37,7.76,4.52,17.48,1.52,25.74-2.43,6.72-7.87,14-15.75,13.78-5.2-.12-9.67-3.46-13.13-7.05-.56-.58-1.45.3-.89.88Z"/><path class="cls-1" d="M290.6,405.28c7.19,2.84,15.6,3.74,23,1.18,6.43-2.22,11.36-7.24,12.1-14.17.52-5-1-9.89-3.13-14.31-.35-.73-1.43-.09-1.08.63,3.13,6.6,4.89,15.05-.13,21.23-4.22,5.2-11.38,7-17.81,6.85a36.26,36.26,0,0,1-12.63-2.61c-.75-.3-1.07.91-.33,1.2Z"/><path class="cls-1" d="M321.59,378.74a13.41,13.41,0,0,0,7.23,4,9.5,9.5,0,0,0,6.3-1.17A8.46,8.46,0,0,0,338.78,371c-1.23-2.84-3.9-4.74-6.66-6-.72-.33-1.36.75-.63,1.08a12,12,0,0,1,5.77,4.63A6.77,6.77,0,0,1,338,376a8,8,0,0,1-8.21,5.62,11.7,11.7,0,0,1-7.29-3.73.63.63,0,0,0-.89.89Z"/><path class="cls-1" d="M103.12,374.74c-7.37.62-14.54,3.1-21.24,6.17s-13.22,6.84-18.56,11.88c-2.58,2.44-5.44,4.46-7.26,7.61a15.34,15.34,0,0,0-1.88,6.73c-.16,2.56,0,5.13-.31,7.69a30.65,30.65,0,0,1-3.3,10.65c-3.32,6.23-9.32,9.56-15.37,12.68s-12.38,6.24-17.26,11a22.13,22.13,0,0,0-6.43,15.35c-.24,6.23.7,12.54.2,18.77-.44,5.41-3.74,10.3-6.32,14.9S-1,508.52.23,514.08c1,4.53,5.45,7.18,9.21,9.21a166.21,166.21,0,0,0,22,10,101.34,101.34,0,0,0,25.38,5.63c7.77.71,15.59.91,23.37,1.53,15.67,1.24,31.29,3,46.89,4.81,32.14,3.75,64.28,7.86,96.64,9.15,31.46,1.26,63.33-.15,94-7.9a207.74,207.74,0,0,0,43.71-16.3A192.21,192.21,0,0,0,382,518c5.95-4,11.44-8.69,17.29-12.86,6.7-4.76,23.09-15.33,15.17-25.27-3.41-4.29-9.46-5.6-14.24-7.73-5-2.22-9.78-6.43-11.11-11.94-2.12-8.81,6-16.32,9.15-23.79,1.4-3.28,1.95-6.86.31-10.17-2.23-4.54-7-7.51-11.85-8.33-5.88-1-12.92-.45-16.5-6.21-4.32-7,.58-15.56,1.61-22.78,2-13.94-10.56-22.59-22.6-25.44A62.79,62.79,0,0,0,330.83,362c-.8.05-.8,1.3,0,1.25,12.1-.76,27.34,1.19,35.63,11.08a18.46,18.46,0,0,1,4.3,9.26c.49,3.92-.57,7.83-1.57,11.58-1.66,6.22-3.53,13.25,1.13,18.69,3.81,4.45,9.89,4.32,15.21,5.08,5,.73,10.37,3.55,12.3,8.58,1.44,3.75-.15,7.64-1.94,10.95-2,3.75-4.56,7.23-6.34,11.11-1.62,3.53-2.55,7.42-1.52,11.25,1.22,4.52,4.89,8.69,8.89,11,4.88,2.83,11,3.7,15.32,7.46,5.19,4.51,2.56,10.51-1.39,14.78-4.11,4.44-9.2,7.8-14.07,11.34-6,4.32-11.6,9-17.77,13.09a195.55,195.55,0,0,1-41.84,20.79c-29,10.35-59.93,14-90.62,14.25-31.42.25-62.76-3-93.94-6.55-30.19-3.48-60.37-7.52-90.74-9a102.6,102.6,0,0,1-25.6-4.41c-8.14-2.53-15.84-6.22-23.45-10-4.11-2-10.09-4.63-11.32-9.57C0,508.12,4.93,501.62,7.61,496.79c2.27-4.08,4.82-8.3,5.31-13,.6-6-.23-12.13-.18-18.12,0-6.32,2.07-11.88,6.77-16.21,5.19-4.79,11.79-7.81,18-11.06,5.33-2.8,10.48-6,13.63-11.34s4.14-11.24,4.23-17.25a19.48,19.48,0,0,1,1-7.23c1.31-3.22,3.93-5.54,6.52-7.72A88.74,88.74,0,0,1,71.55,388a83.4,83.4,0,0,1,10.39-5.75c6.63-3.09,13.84-5.64,21.18-6.26.8-.07.8-1.32,0-1.25Z"/><path class="cls-1" d="M43.94,115.08c-6.95,12.26-10.67,26-13.48,39.75-1.34,6.53-2.46,13-2.18,19.73a58.52,58.52,0,0,0,3.07,15.94c3.58,10.82,9.28,21.09,11.16,32.42A48.68,48.68,0,0,1,39.85,248c-5.7,15.26-17,27.53-24.15,42-3.47,7-5.87,14.62-6,22.51-.18,9.46,3,18.08,7,26.47,4.87,10,10,19.95,15.47,29.66,5.27,9.31,10.8,18.66,17.55,27a61.48,61.48,0,0,0,4.08,4.6c.57.57,1.45-.32.88-.89-7-7.07-12.36-15.9-17.42-24.41C31.43,365.12,26.07,355,21,344.81c-4.3-8.59-8.79-17.19-9.81-26.89a47.57,47.57,0,0,1,4-23.7c6.28-14.66,17.28-26.68,23.94-41.16a53.58,53.58,0,0,0,5.32-23.19C44.22,219,39.83,208.94,35.85,199a100.12,100.12,0,0,1-5.1-15.26,55.54,55.54,0,0,1-.93-17.82,152.75,152.75,0,0,1,4.17-21,135.66,135.66,0,0,1,6.51-20A89.93,89.93,0,0,1,45,115.71a.63.63,0,0,0-1.08-.63Z"/><path class="cls-1" d="M124.94,30.91c14.28-9.83,30.48-16.65,47.12-21.33a229.73,229.73,0,0,1,56-8.24,237,237,0,0,1,57.76,5.42c18,4,35.61,10.34,51.56,19.69,15,8.77,28.4,20.34,38.18,34.76a101.21,101.21,0,0,1,16.93,50.45,121.4,121.4,0,0,1-5.07,42.65c-4.5,15-11.42,29.14-18.58,43-5.89,11.44-13,22.46-17.18,34.7-3.54,10.36-4,21.49,2.27,30.92,7.13,10.67,19.48,15.75,29,23.83,8.56,7.24,14.75,16.36,16,27.7.79,7.2-.27,14.42-1.52,21.5-1.39,7.83-3.25,15.56-4.88,23.34A171,171,0,0,0,389,382.38a115.44,115.44,0,0,0,1,22.45c.68,5.6,1.3,11.64,3.78,16.78.35.72,1.42.09,1.08-.63-2.8-5.79-3.26-12.86-4-19.15-.4-3.6-.88-7.21-.92-10.84a108,108,0,0,1,.6-12.46c1.7-16.28,6.68-32,9-48.15,1.65-11.59,1.09-23.31-5.54-33.35-6.13-9.28-15.69-15.75-24.89-21.68-6-3.84-11.61-8.53-15.21-14.75a28.55,28.55,0,0,1-3.67-16.2c.79-12.35,7.44-23.88,13.23-34.5,14.49-26.57,29-54.48,30.36-85.33.87-19.06-2.86-38.31-11.9-55.19-8.13-15.17-20.21-27.87-34.22-37.75C332.85,21.12,315.88,13.71,298.4,8.68A228.76,228.76,0,0,0,241.62.1a239.73,239.73,0,0,0-57.18,5.13C167.09,9,150,14.78,134.5,23.49q-5.24,2.94-10.19,6.34c-.66.46,0,1.54.63,1.08Z"/><path class="cls-1" d="M67.94,473.46c-7.09,0-7.09,11,0,11S75,473.46,67.94,473.46Z"/><path class="cls-1" d="M96.28,412.86c-7.09,0-7.09,11,0,11S103.37,412.86,96.28,412.86Z"/><path class="cls-1" d="M141.24,464.66a5.55,5.55,0,0,0-5.5,5.5v1.95a5.5,5.5,0,1,0,11,0v-1.95A5.55,5.55,0,0,0,141.24,464.66Z"/><path class="cls-1" d="M95.3,510.59c-7.09,0-7.09,11,0,11S102.39,510.59,95.3,510.59Z"/><path class="cls-1" d="M32.75,493c-7.08,0-7.08,11,0,11S39.84,493,32.75,493Z"/><path class="cls-1" d="M167.62,517.44c-7.09,0-7.09,11,0,11S174.71,517.44,167.62,517.44Z"/><path class="cls-1" d="M203.78,490.07c-7.09,0-7.09,11,0,11S210.87,490.07,203.78,490.07Z"/><path class="cls-1" d="M270.24,533.07c-7.09,0-7.09,11,0,11S277.33,533.07,270.24,533.07Z"/><path class="cls-1" d="M269.26,473.46c-7.09,0-7.09,11,0,11S276.35,473.46,269.26,473.46Z"/><path class="cls-1" d="M330.83,513.53c-7.09,0-7.09,11,0,11S337.92,513.53,330.83,513.53Z"/><path class="cls-1" d="M322,470.53c-7.09,0-7.09,11,0,11S329.13,470.53,322,470.53Z"/><path class="cls-1" d="M369.92,466.62c-7.09,0-7.09,11,0,11S377,466.62,369.92,466.62Z"/><path class="cls-1" d="M329.85,416.77c-7.09,0-7.09,11,0,11S336.94,416.77,329.85,416.77Z"/><path class="cls-1" d="M249.4,374.33c-11.88-11-19.8,5.45-24.78,18.55-9-12.61-22.75-27.8-30.9-13.89-8.39,14.32,17.36,33,28.11,37.64a7.79,7.79,0,0,0,9-2.06,6.18,6.18,0,0,0,.82-.8C243.49,406.57,260.91,385,249.4,374.33Z"/><path class="cls-1" d="M75.13,222.9c.48,10.72-3.25,20.66-8.75,29.7C61.3,260.93,55,268.44,50.05,276.87c-4.48,7.7-7.3,16.29-5.39,25.22a40.52,40.52,0,0,0,6.88,14.75c2.1,3,4.51,5.7,6.8,8.52,2.47,3.05,4.87,6.16,7.14,9.37,8.49,12,14.59,25.6,14.75,40.56,0,2-.06,4-.21,5.93-.06.81,1.19.8,1.25,0a63.33,63.33,0,0,0-2.13-22.13,76.9,76.9,0,0,0-8.75-19.22A164,164,0,0,0,57,321.78c-4-4.86-7.83-10-10-16A28.48,28.48,0,0,1,45.55,292a38.5,38.5,0,0,1,4.37-12.36c4.57-8.58,10.91-16.07,16.14-24.23,5.51-8.58,9.83-18,10.32-28.34.07-1.41.07-2.81,0-4.21,0-.8-1.28-.8-1.25,0Z"/><path class="cls-1" d="M115.38,257.64c-5.59,5.47-10.06,12.12-11.82,19.82a43.9,43.9,0,0,0,.66,20.16c3.59,14.65,11.57,27.74,16.71,41.83,2.7,7.41,4.69,15.25,4,23.21-.06.8,1.19.79,1.25,0,1.16-14.19-5.54-27.81-11.22-40.38-5.77-12.74-12.61-26.79-10.82-41.19,1.1-8.82,5.82-16.43,12.09-22.56.57-.57-.31-1.45-.89-.89Z"/><path class="cls-1" d="M154.48,348.66A43.2,43.2,0,0,1,151,321c1.8-8.85,5.51-17.17,8.31-25.72a98.57,98.57,0,0,0,4-16.5c.11-.78-1.09-1.12-1.21-.33-1.45,10-5,19.38-8.39,28.86-3,8.31-5.52,16.93-4.85,25.85a45.52,45.52,0,0,0,4.51,16.14c.35.72,1.42.09,1.08-.63Z"/><path class="cls-1" d="M289.41,347.18c6.06-17-7.81-32.11-9.82-48.44a29.89,29.89,0,0,1,2-15.08c.31-.74-.9-1.07-1.2-.33-3.42,8.33-2.49,17,.34,25.37,2.71,8,6.85,15.61,8.42,24a27,27,0,0,1-.94,14.18c-.28.76.93,1.09,1.2.33Z"/><path class="cls-1" d="M343.1,204.87c-9.39,10.17-15.72,23-19.49,36.28-3.33,11.67-5.38,25.07-1.37,36.83,3,8.69,9.58,14.68,16.48,20.33,3.94,3.23,7.89,6.44,11.51,10,4.58,4.53,8.65,9.34,10.06,15.78,2.65,12.07-3.06,23.6-5.2,35.23-.2,1.1-.36,2.2-.45,3.32-.07.8,1.18.79,1.25,0,.44-5.31,2.27-10.48,3.63-15.6,1.55-5.82,2.88-11.84,2.65-17.9a26.86,26.86,0,0,0-6.33-16.63,97.08,97.08,0,0,0-11.63-11.31c-6.79-5.71-14.48-11-18.78-19-5.61-10.45-4.61-23.44-2.16-34.63,3-13.61,8.69-27.05,17.41-38,1.05-1.32,2.16-2.6,3.3-3.84.54-.59-.34-1.47-.88-.88Z"/><path class="cls-1" d="M322.48,355.28c4.44-5.66,4-12.54,1.56-19-2.72-7.33-7.11-13.88-10.5-20.9-1.72-3.57-3.3-7.39-3.59-11.39-.05-.8-1.3-.81-1.25,0,.49,7,4.35,13.39,7.61,19.36,3.45,6.31,7.64,13.09,8.3,20.41a14.67,14.67,0,0,1-3,10.61c-.49.62.39,1.51.89.88Z"/><path class="cls-1" d="M82.34,195.64c-1.92-4.31-8.23-.57-6.33,3.7s6.78,21.38-3.47,19.17c-5.58-1.2-3.94-16.06-2.42-19.66,1.83-4.3-4.48-8-6.32-3.7-3.66,8.63-4.51,28,7.54,30.59,6.9,1.49,13.14-3.58,14.55-10.09S85,201.66,82.34,195.64Z"/><path class="cls-1" d="M344.63,183.32c-1.77-4.31-8.86-2.42-7.07,2,1.59,3.89,5,14.82.69,18.08-3.21,2.45-7.18-1.15-7.27-4.42-.12-4.12,2-8.4,3.39-12.19,1.61-4.46-5.47-6.36-7.07-2-2.09,5.76-4.48,11.58-3.23,17.81,1.34,6.66,9.12,9.41,15.08,8.29C350.54,208.76,347.62,190.65,344.63,183.32Z"/></g></g></svg>